<svg width="72" height="70" viewBox="0 0 72 70" fill="none" xmlns="http://www.w3.org/2000/svg">
<path fill-rule="evenodd" clip-rule="evenodd" d="M71.7118 12.4211V62.2851C71.7093 66.5377 68.2197 69.9873 63.9076 70C62.8771 70 62.0417 69.1761 62.0417 68.1598C62.0417 67.1435 62.8771 66.3197 63.9076 66.3197C66.1652 66.3171 67.994 64.5115 67.994 62.2851V12.4211C67.9863 10.2001 66.1597 8.40289 63.9076 8.40037H56.234V11.041C56.234 12.0573 55.3986 12.8812 54.3681 12.8812C53.3376 12.8812 52.5022 12.0573 52.5022 11.041V8.40037H37.5749V11.041C37.5749 12.0573 36.7395 12.8812 35.709 12.8812C34.6784 12.8812 33.843 12.0573 33.843 11.041V8.40037H18.9157V11.041C18.9157 12.0573 18.0803 12.8812 17.0498 12.8812C16.0193 12.8812 15.1839 12.0573 15.1839 11.041V8.40037H7.81819C5.56605 8.40289 3.73953 10.2001 3.73183 12.4211V62.2851C3.73183 64.5115 5.5606 66.3171 7.81819 66.3197H50.403C51.4336 66.3197 52.269 67.1435 52.269 68.1598C52.269 69.1761 51.4336 70 50.403 70H7.81819C3.50063 69.9949 0.00256997 66.5431 0 62.2851V12.4211C0.0102761 8.16855 3.50609 4.72509 7.81819 4.72003H15.1839V1.84017C15.1839 0.823871 16.0193 0 17.0498 0C18.0803 0 18.9157 0.823871 18.9157 1.84017V4.72003H33.843V1.84017C33.843 0.823871 34.6784 0 35.709 0C36.7395 0 37.5749 0.823871 37.5749 1.84017V4.72003H52.5022V1.84017C52.5022 0.823871 53.3376 0 54.3681 0C55.3986 0 56.234 0.823871 56.234 1.84017V4.72003H63.9076C68.2142 4.73268 71.7016 8.17392 71.7118 12.4211Z" fill="#68bfb7"/>
<path fill-rule="evenodd" clip-rule="evenodd" d="M14.6607 29.6773C16.4821 29.6773 17.9587 28.2211 17.9587 26.4248C17.9587 24.6285 16.4821 23.1723 14.6607 23.1723C12.8392 23.1723 11.3627 24.6285 11.3627 26.4248C11.3627 28.2211 12.8392 29.6773 14.6607 29.6773Z" fill="#68bfb7"/>
<path fill-rule="evenodd" clip-rule="evenodd" d="M28.2025 29.6773C30.024 29.6773 31.5006 28.2211 31.5006 26.4248C31.5006 24.6285 30.024 23.1723 28.2025 23.1723C26.3811 23.1723 24.9045 24.6285 24.9045 26.4248C24.9045 28.2211 26.3811 29.6773 28.2025 29.6773Z" fill="#68bfb7"/>
<path fill-rule="evenodd" clip-rule="evenodd" d="M14.6607 43.1013C16.4821 43.1013 17.9587 41.6451 17.9587 39.8488C17.9587 38.0525 16.4821 36.5963 14.6607 36.5963C12.8392 36.5963 11.3627 38.0525 11.3627 39.8488C11.3627 41.6451 12.8392 43.1013 14.6607 43.1013Z" fill="#68bfb7"/>
<path fill-rule="evenodd" clip-rule="evenodd" d="M28.2025 43.1013C30.024 43.1013 31.5006 41.6451 31.5006 39.8488C31.5006 38.0525 30.024 36.5963 28.2025 36.5963C26.3811 36.5963 24.9045 38.0525 24.9045 39.8488C24.9045 41.6451 26.3811 43.1013 28.2025 43.1013Z" fill="#68bfb7"/>
<path fill-rule="evenodd" clip-rule="evenodd" d="M14.6607 55.9958C16.4821 55.9958 17.9587 54.5396 17.9587 52.7433C17.9587 50.947 16.4821 49.4908 14.6607 49.4908C12.8392 49.4908 11.3627 50.947 11.3627 52.7433C11.3627 54.5396 12.8392 55.9958 14.6607 55.9958Z" fill="#68bfb7"/>
<path fill-rule="evenodd" clip-rule="evenodd" d="M28.2025 55.9958C30.024 55.9958 31.5006 54.5396 31.5006 52.7433C31.5006 50.947 30.024 49.4908 28.2025 49.4908C26.3811 49.4908 24.9045 50.947 24.9045 52.7433C24.9045 54.5396 26.3811 55.9958 28.2025 55.9958Z" fill="#68bfb7"/>
<path fill-rule="evenodd" clip-rule="evenodd" d="M42.1468 29.6773C43.9682 29.6773 45.4448 28.2211 45.4448 26.4248C45.4448 24.6285 43.9682 23.1723 42.1468 23.1723C40.3253 23.1723 38.8488 24.6285 38.8488 26.4248C38.8488 28.2211 40.3253 29.6773 42.1468 29.6773Z" fill="#68bfb7"/>
<path fill-rule="evenodd" clip-rule="evenodd" d="M56.2939 29.6773C58.1153 29.6773 59.5919 28.2211 59.5919 26.4248C59.5919 24.6285 58.1153 23.1723 56.2939 23.1723C54.4724 23.1723 52.9958 24.6285 52.9958 26.4248C52.9958 28.2211 54.4724 29.6773 56.2939 29.6773Z" fill="#68bfb7"/>
<path fill-rule="evenodd" clip-rule="evenodd" d="M58.2812 42.9353C58.1609 42.9661 58.037 42.9816 57.9127 42.9813C57.1515 42.9808 56.4917 42.4617 56.322 41.73C56.2264 41.3034 56.0457 40.8999 55.7902 40.543C55.689 40.3986 55.5682 40.2686 55.431 40.1566C54.5027 39.3594 53.1747 39.2026 52.0817 39.761C51.4022 40.1374 50.8271 40.673 50.4071 41.3205C50.0667 41.8215 49.4955 42.1222 48.884 42.1222C48.2725 42.1222 47.7013 41.8215 47.361 41.3205C46.9566 40.6713 46.3895 40.1358 45.7143 39.7656C44.6158 39.2027 43.28 39.3596 42.3463 40.1612C41.544 40.8375 40.9049 42.4614 41.7865 44.8674C42.393 46.4822 43.4799 47.7519 45.5184 49.2424C46.2927 49.7991 47.4729 50.549 48.8817 51.3816C50.2811 50.549 51.4753 49.7991 52.2543 49.2378C53.3583 48.4845 54.3332 47.562 55.1418 46.5052C55.4751 46.0327 56.0388 45.7714 56.6204 45.8198C57.202 45.8682 57.7132 46.219 57.9615 46.7399C58.2098 47.2608 58.1574 47.8728 57.8241 48.3454C56.815 49.692 55.5909 50.8681 54.1995 51.8279C52.8981 52.748 51.0835 53.8475 49.7866 54.5881C49.5385 54.7341 49.2546 54.8105 48.9656 54.809H48.8024C48.5134 54.8105 48.2295 54.7341 47.9814 54.5881C46.6846 53.8429 44.8653 52.748 43.5871 51.8279C41.7632 50.5076 39.762 48.7778 38.7078 45.9669C37.2524 42.0198 38.6145 39.0663 40.2238 37.6862C42.152 36.0555 44.8868 35.7323 47.151 36.8673C47.7918 37.182 48.3788 37.5933 48.891 38.0864C49.4007 37.5965 49.9826 37.1855 50.617 36.8673C52.8753 35.7334 55.6039 36.053 57.5302 37.677C57.8686 37.9621 58.1709 38.2865 58.4305 38.6431C58.9471 39.3497 59.3121 40.1527 59.5034 41.0031C59.6025 41.4192 59.5292 41.8572 59.2998 42.2199C59.0704 42.5825 58.7038 42.84 58.2812 42.9353Z" fill="#68bfb7"/>
</svg>
