<svg width="70" height="70" viewBox="0 0 70 70" fill="none" xmlns="http://www.w3.org/2000/svg">
<path d="M68.5414 67.0833H1.45837C0.653377 67.0833 0 67.7365 0 68.5415C0 69.3465 0.653377 69.9999 1.45837 69.9999H68.5416C69.3466 69.9999 69.9999 69.3465 69.9999 68.5415C69.9998 67.7365 69.3464 67.0833 68.5414 67.0833Z" fill="#68bfb7"/>
<path d="M13.1249 49.5833H4.37488C3.56988 49.5833 2.9165 50.2367 2.9165 51.0417V68.5416C2.9165 69.3465 3.56988 69.9999 4.37488 69.9999H13.1249C13.9299 69.9999 14.5832 69.3465 14.5832 68.5415V51.0415C14.5832 50.2365 13.9299 49.5833 13.1249 49.5833ZM11.6665 67.0833H5.83325V52.4999H11.6666V67.0833H11.6665Z" fill="#68bfb7"/>
<path d="M30.6249 35H21.8749C21.0699 35 20.4165 35.6533 20.4165 36.4583V68.5416C20.4165 69.3466 21.0699 70 21.8749 70H30.6249C31.4299 70 32.0832 69.3466 32.0832 68.5416V36.4583C32.0832 35.6533 31.4299 35 30.6249 35ZM29.1665 67.0833H23.3331V37.9166H29.1665V67.0833Z" fill="#68bfb7"/>
<path d="M48.1249 40.8333H39.3749C38.5699 40.8333 37.9165 41.4867 37.9165 42.2917V68.5416C37.9165 69.3466 38.5699 70 39.3749 70H48.1249C48.9298 70 49.5832 69.3466 49.5832 68.5416V42.2917C49.5832 41.4866 48.9298 40.8333 48.1249 40.8333ZM46.6665 67.0832H40.8331V43.7499H46.6665V67.0832Z" fill="#68bfb7"/>
<path d="M65.6249 23.3333H56.8749C56.0699 23.3333 55.4165 23.9867 55.4165 24.7917V68.5416C55.4165 69.3466 56.0699 69.9999 56.8749 69.9999H65.6249C66.4298 69.9999 67.0832 69.3466 67.0832 68.5416V24.7917C67.0832 23.9866 66.4298 23.3333 65.6249 23.3333ZM64.1665 67.0832H58.3331V26.2499H64.1665V67.0832Z" fill="#68bfb7"/>
<path d="M8.74987 26.25C5.53275 26.25 2.9165 28.8662 2.9165 32.0833C2.9165 35.3005 5.53275 37.9167 8.74987 37.9167C11.967 37.9167 14.5832 35.3005 14.5832 32.0833C14.5832 28.8662 11.967 26.25 8.74987 26.25ZM8.74987 34.9999C7.13987 34.9999 5.83325 33.6903 5.83325 32.0833C5.83325 30.4762 7.13987 29.1667 8.74987 29.1667C10.3599 29.1667 11.6665 30.4763 11.6665 32.0833C11.6665 33.6903 10.3599 34.9999 8.74987 34.9999Z" fill="#68bfb7"/>
<path d="M26.2499 11.6666C23.0327 11.6666 20.4165 14.2829 20.4165 17.5C20.4165 20.7171 23.0327 23.3334 26.2499 23.3334C29.467 23.3334 32.0832 20.7171 32.0832 17.5C32.0832 14.2829 29.467 11.6666 26.2499 11.6666ZM26.2499 20.4166C24.6399 20.4166 23.3333 19.107 23.3333 17.5C23.3333 15.8929 24.6399 14.5834 26.2499 14.5834C27.8599 14.5834 29.1665 15.893 29.1665 17.5C29.1665 19.1071 27.8599 20.4166 26.2499 20.4166Z" fill="#68bfb7"/>
<path d="M43.7499 17.5C40.5327 17.5 37.9165 20.1162 37.9165 23.3333C37.9165 26.5505 40.5327 29.1667 43.7499 29.1667C46.967 29.1667 49.5832 26.5505 49.5832 23.3333C49.5832 20.1162 46.967 17.5 43.7499 17.5ZM43.7499 26.25C42.1399 26.25 40.8333 24.9403 40.8333 23.3333C40.8333 21.7262 42.1399 20.4167 43.7499 20.4167C45.3599 20.4167 46.6665 21.7264 46.6665 23.3333C46.6665 24.9403 45.3599 26.25 43.7499 26.25Z" fill="#68bfb7"/>
<path d="M61.2499 0C58.0327 0 55.4165 2.61624 55.4165 5.83336C55.4165 9.05048 58.0327 11.6667 61.2499 11.6667C64.467 11.6667 67.0832 9.05048 67.0832 5.83336C67.0832 2.61624 64.467 0 61.2499 0ZM61.2499 8.74998C59.6399 8.74998 58.3333 7.44035 58.3333 5.83336C58.3333 4.22624 59.6399 2.91675 61.2499 2.91675C62.8599 2.91675 64.1665 4.22637 64.1665 5.83336C64.1665 7.44035 62.8599 8.74998 61.2499 8.74998Z" fill="#68bfb7"/>
<path d="M59.191 7.89199C58.6223 7.32324 57.6976 7.32324 57.1289 7.89199L45.8123 19.2086C45.2436 19.7773 45.2436 20.702 45.8123 21.2707C46.0982 21.5536 46.4714 21.6966 46.8448 21.6966C47.2152 21.6966 47.5885 21.5566 47.8744 21.2707L59.191 9.95411C59.7598 9.38537 59.7598 8.46074 59.191 7.89199Z" fill="#68bfb7"/>
<path d="M40.2231 19.9668L30.8548 17.2952C30.0701 17.0677 29.2739 17.5227 29.0551 18.2985C28.8335 19.0744 29.2826 19.8794 30.0555 20.101L39.4238 22.7727C39.558 22.8105 39.6922 22.828 39.8235 22.828C40.4594 22.828 41.0426 22.4109 41.2263 21.7693C41.4481 20.9964 40.999 20.1884 40.2231 19.9668Z" fill="#68bfb7"/>
<path d="M23.9754 19.3167C23.4737 18.6867 22.5579 18.5846 21.9279 19.0834L10.932 27.8508C10.302 28.3555 10.197 29.2712 10.7016 29.9012C10.9904 30.2628 11.4163 30.4496 11.842 30.4496C12.1599 30.4496 12.4808 30.3446 12.7491 30.1346L23.745 21.3671C24.375 20.8625 24.48 19.9467 23.9754 19.3167Z" fill="#68bfb7"/>
</svg>
