<?xml version="1.0" encoding="utf-8"?>
<!-- Generator: Adobe Illustrator 24.0.2, SVG Export Plug-In . SVG Version: 6.00 Build 0)  -->
<svg version="1.1" id="Camada_1" xmlns="http://www.w3.org/2000/svg" xmlns:xlink="http://www.w3.org/1999/xlink" x="0px" y="0px"
	 viewBox="0 0 256 144" style="enable-background:new 0 0 256 144;" xml:space="preserve">
<style type="text/css">
	.st0{fill:#E56F65;}
	.st1{fill:#E66F65;}
</style>
<g id="QarD91.tif">
	<g>
		<path class="st0" d="M28.67,142c-0.09-0.41-0.42-0.4-0.73-0.43c-2.15-0.19-4.2-0.72-6.16-1.61c-0.86-0.39-1.66-0.87-2.43-1.41
			c-0.2-0.14-0.38-0.28-0.43-0.55c-0.03-0.17-0.17-0.25-0.32-0.35c-2.71-1.75-4.4-4.13-4.78-7.43c-0.3-2.6-0.36-5.18,0.52-7.64
			c0.5-1.39,0.81-2.8,1.19-4.21c0.55-2.06,1.63-3.9,2.82-5.66c0.15-0.22,0.4-0.36,0.61-0.54c0.27-0.23,0.51-0.48,0.53-0.87
			c0.01-0.12,0.08-0.2,0.17-0.27c1.83-1.57,2.96-3.64,4.17-5.67c0.08-0.14,0.17-0.28,0.26-0.42c0.97-1.55,0.97-1.55,2.71-1.96
			c0.07-0.02,0.17-0.05,0.21-0.02c0.53,0.49,0.61-0.04,0.79-0.34c0.1-0.17,0.15-0.38,0.33-0.5c0.34-0.26,0.59-0.17,0.72,0.24
			c0.04,0.14,0.03,0.32,0.19,0.38c0.93,0.32,0.75,1.32,1.17,1.95c0.14,0.22-0.14,0.51-0.34,0.7c-0.32,0.3-0.35,0.58-0.14,0.97
			c0.62,1.16,0.83,2.43,0.95,3.72c0.03,0.35,0.07,0.7,0.22,1.02c0.33,0.69,0.34,1.4,0.08,2.09c-0.21,0.59-0.5,1.15-0.75,1.72
			c-0.09,0.2-0.29,0.27-0.45,0.4c-2.51,1.94-4.39,4.34-5.2,7.46c-0.45,1.75-0.02,3.35,0.83,4.88c0.23,0.42,0.47,0.84,0.71,1.25
			c0.47,0.82,1.59,1.28,2.51,1.02c2.45-0.68,4.65-1.84,6.57-3.51c0.9-0.78,3.07-1.96,3.94-2.11c-0.84,0.98-1.79,1.69-2.74,2.42
			c1.1-0.21,2.1-0.67,2.85-1.45c1.26-1.32,2.61-2.51,4.12-3.54c1.09-0.74,1.78-1.9,2.49-3c0.56-0.87,1.11-1.74,1.66-2.61
			c0.21-0.34,0.49-0.61,0.83-0.79c0.75-0.4,1.36-0.95,1.86-1.62c0.95-1.27,1.83-2.58,2.42-4.07c0.27-0.67,0.63-1.3,1.09-1.85
			c0.63-0.76,1.14-1.58,1.59-2.45c0.53-1.03,1.13-2.02,1.84-2.94c0.81-1.03,1.33-2.2,1.53-3.5c0.12-0.79,0.45-1.5,0.86-2.19
			c0.79-1.35,1.51-2.74,2.22-4.13c0.16-0.31,0.3-0.67,0.23-1.07c-0.58,0.23-0.65,0.95-1.2,1.17l0.01,0.01
			c0.18-1.05,0.64-2,1.18-2.89c2.69-4.45,4.77-9.21,6.79-13.98c0.96-2.27,2.08-4.47,2.86-6.82c0.1-0.31,0.26-0.6,0.66-0.77
			c-0.52,2.08-1.22,4.05-1.82,6.16c0.36-0.26,0.4-0.56,0.51-0.82c0.88-2.07,1.55-4.21,2.01-6.41c0.32-1.53,0.96-2.93,1.82-4.23
			c0.37-0.57,0.73-1.16,0.99-1.78c1.27-3.03,3.37-5.57,5.01-8.38c0.32-0.55,0.76-1.04,1.25-1.46c0.32-0.27,0.61-0.58,1.12-0.4
			c0.26,0.09,0.43-0.16,0.59-0.34c0.17-0.19,0.35-0.39,0.47-0.61c0.21-0.38,0.53-0.23,0.78-0.14c0.25,0.09,0.12,0.38,0.09,0.58
			c-0.01,0.09-0.06,0.17-0.09,0.26c-0.05,0.06-0.11,0.12-0.16,0.18c0.02,0.01,0.03,0.02,0.05,0.02c0.1,0,0.14-0.08,0.17-0.17
			c0.11-0.09,0.23-0.18,0.34-0.28c0.15-0.13,0.28-0.17,0.41,0.03c0.32,0.5,0.67,0.97,0.96,1.48c0.28,0.49,0.35,1.01,0.01,1.52
			c-0.15,0.23-0.1,0.46,0,0.68c0.21,0.47,0.12,0.86-0.15,1.29c-1.45,2.26-2.89,4.53-4.32,6.81c-1.33,2.13-2.35,4.42-3.37,6.7
			c-0.21,0.47-0.46,0.92-0.69,1.38c-0.17,0.33-0.24,0.68-0.16,1.1c0.6-0.43,0.93-1,1.2-1.6c1.25-2.72,2.79-5.27,4.41-7.78
			c0.44-0.68,0.82-1.4,1.21-2.11c0.5-0.9,0.98-1.81,1.95-2.29c0.63-0.32,1.1-0.87,1.75-1.16c0.24-0.11,0.5-0.25,0.53,0.2
			c0,0.02,0.01,0.04,0.02,0.05c0.9,0.99,0.31,1.88-0.23,2.73c-1.87,2.96-3.54,6.03-5.09,9.17c-2.23,4.52-4.67,8.94-7.05,13.39
			c-0.82,1.53-1.35,3.18-1.89,4.82c-0.55,1.66-1.29,3.25-1.94,4.87c-1.61,4.03-3.08,8.12-4.94,12.05c-1.19,2.52-2.53,4.95-4.17,7.21
			c-0.35,0.48-0.48,1.07-0.74,1.6c-0.47,0.96-1.01,1.88-1.72,2.69c-0.2,0.23-0.33,0.53-0.49,0.79c-2.65,4.17-5.52,8.18-8.96,11.76
			c-3.8,3.97-8.06,7.39-12.7,10.34c-3.05,1.94-6.37,3.2-9.96,3.73c-0.08,0.01-0.16,0.07-0.24,0.1C28.89,142,28.78,142,28.67,142z
			 M31.09,134.5c0.66,0.38,1.4,0.42,2.1,0.61c1.47,0.39,2.83,0.22,4.18-0.55c2.95-1.7,5.56-3.86,8.16-6.02
			c0.16-0.14,0.33-0.32,0.15-0.51c-0.16-0.16-0.29,0.08-0.4,0.17c-1.6,1.3-3.22,2.58-4.96,3.69c-1.49,0.95-2.99,1.9-4.73,2.32
			C34.11,134.55,32.6,134.51,31.09,134.5z M47.09,127.38c0.53-0.78,1.28-1.29,1.83-2.05C47.96,125.53,47.02,126.57,47.09,127.38z
			 M70.47,74.49c-0.01-0.01-0.02-0.03-0.03-0.04c-0.01,0.01-0.03,0.02-0.03,0.04c0,0.01,0.02,0.03,0.03,0.04
			C70.45,74.51,70.46,74.5,70.47,74.49z"/>
		<path class="st0" d="M177.7,103.74c-0.06,0.21,0.2,0.3,0.19,0.49c-0.08,0.16-0.28-0.02-0.42,0.2c0.05,0.03,0.13,0.05,0.19,0.1
			c0.52,0.45,0.56,0.89,0.13,1.42c-0.13,0.16-0.3,0.1-0.46,0.1c-1.83,0-3.58-0.38-5.24-1.15c-0.6-0.28-1.2-0.56-1.79-0.87
			c-1-0.52-1.81-1.25-2.34-2.29c-2.55,2.35-5.35,4.24-8.34,5.86c-1.57,0.85-3.18,1.63-4.87,2.22c-3.19,1.1-6.27,0.76-9.21-0.85
			c-0.97-0.53-1.89-1.14-2.99-1.4c-0.56-0.13-0.93-0.58-1.31-0.98c-0.54-0.55-1.12-1.01-1.96-0.95c-0.31,0.02-0.52-0.25-0.75-0.43
			c-1.35-1.04-2.3-2.42-3.19-3.85c-0.46-0.74-0.4-0.66-1.08-0.17c-2.22,1.62-3.89,3.82-5.98,5.57c-0.49,0.41-0.56,0.4-0.91-0.15
			c-0.38-0.59-0.36-1.19-0.03-1.78c0.2-0.35,0.43-0.68,0.66-1.02c0.26-0.38,0.6-0.75,0.68-1.19c0.16-0.88,0.73-1.49,1.35-2.02
			c1.08-0.92,1.62-2.16,2.25-3.36c0.82-1.55,1.69-3.06,2.9-4.35c0.57-0.61,0.99-1.31,1.39-2.04c1.71-3.13,3.53-6.2,5.75-9.02
			c0.93-1.18,1.6-2.57,2.54-3.74c1.55-1.92,2.49-4.19,3.78-6.26c0.87-1.4,1.85-2.63,3.04-3.74c0.62-0.58,1.22-1.17,1.71-1.87
			c0.03-0.05,0.06-0.12,0.1-0.13c0.98-0.16,0.88-1.06,1.09-1.69c0.24-0.75,0.61-1.25,1.39-1.48c0.88-0.26,1.75-0.53,2.58-0.96
			c0.26-0.13,0.8-0.21,1.1-0.18c0.49,0.05,0.81-0.14,1.18-0.31c0.63-0.29,0.79-0.23,1.01,0.42c0.33-0.08,0.49-0.37,0.71-0.58
			c0.23-0.22,0.47-0.41,0.98-0.42c-0.55,0.44-0.35,1.1-0.89,1.54c-1.52,1.23-2.81,2.71-3.87,4.36c-0.08,0.05-0.12,0.12-0.11,0.22
			c-0.05,0.01-0.08,0.02-0.06,0.08c0.03-0.02,0.05-0.04,0.08-0.06c0.06-0.05,0.12-0.11,0.17-0.16c0.92-0.88,1.83-1.76,2.75-2.63
			c0.32-0.3,0.66-0.59,1-0.86c0.15-0.12,0.34-0.42,0.54-0.17c0.15,0.2,0.39,0.47,0.07,0.81c-0.4,0.43-0.72,0.93-1.07,1.39
			c-0.09,0.08-0.21,0.14-0.14,0.29c-0.05-0.03-0.09-0.02-0.07,0.05c0.02-0.02,0.04-0.04,0.06-0.06c0.08-0.06,0.17-0.12,0.25-0.18
			c1.04-0.72,1.93-1.59,2.63-2.65c0.23-0.34,0.46-0.68,0.82-0.89c0.17-0.1,0.36-0.2,0.49-0.13c-0.11,1.71-1.05,3.01-2.07,4.23
			c-1.29,1.54-2.18,3.34-3.35,4.96c-1.73,2.4-3.19,4.99-5.13,7.25c-1.62,1.89-3.23,3.78-4.8,5.7c-2.01,2.47-3.39,5.25-3.83,8.44
			c-0.12,0.87-0.28,1.75-0.28,2.63c0,2.23,1.42,3.72,3.66,3.93c2.18,0.2,3.98-0.64,5.72-1.8c3.99-2.68,7.51-5.87,10.59-9.55
			c0.18-0.21,0.37-0.41,0.56-0.61c0.26-0.26,0.5-0.51,0.55-0.92c0.04-0.31,0.27-0.56,0.5-0.78c0.49-0.46,0.82-1.03,1.14-1.62
			c0.82-1.53,1.71-3.02,2.75-4.4c1.02-1.36,2.26-2.56,3.42-3.81c0.59-0.64,1.19-1.26,1.56-2.06c0.05-0.1,0.11-0.2,0.19-0.26
			c1.63-1.28,2.67-3.03,3.79-4.72c0.23-0.35,0.48-0.7,0.72-1.05c0.12-0.18,0.29-0.33,0.21-0.59c-0.03-0.1,0.03-0.27,0.11-0.35
			c0.94-0.93,1.5-2.15,2.37-3.12c1.07-1.19,2.2-2.31,3.11-3.64c0.36-0.53,0.95-0.78,1.59-0.91c0.39-0.08,0.64,0.05,0.85,0.34
			c0.19,0.25,0.34,0.52,0.63,0.68c0.23,0.13,0.1,0.32,0.06,0.49c-0.26,1.15-0.8,2.17-1.41,3.16c-1.11,1.82-2.24,3.64-3.36,5.45
			c-0.12,0.19-0.21,0.39-0.32,0.58c-0.05,0.09-0.11,0.18-0.16,0.27c-0.07,0.04-0.13,0.11-0.07,0.16c0.07,0.06,0.1-0.06,0.13-0.1
			c0.06-0.08,0.13-0.16,0.19-0.24c0.74-0.83,1.19-1.84,1.77-2.78c0.55-0.9,1.09-1.79,1.94-2.44c0.22-0.17,0.25-0.44,0.37-0.66
			c0.47-0.82,1.08-1.54,1.7-2.23c0.29-0.33,0.84-0.69,1.47-0.61c-0.17,0.6-0.59,1.05-0.78,1.6c-0.06,0.06-0.13,0.13-0.05,0.23
			c0.05-0.04,0.1-0.09,0.15-0.13c0.23-0.27,0.44-0.54,0.68-0.8c0.26-0.28,0.34-0.72,0.77-0.82c0.91-0.22,1.8-0.58,2.76-0.4
			c0.18,0.03,0.35,0.12,0.5,0.22c0.28,0.18,0.63,0.4,0.67,0.7c0.05,0.35-0.4,0.38-0.66,0.51c-0.13,0.06-0.2,0.16-0.26,0.28
			c-1.15,2.31-2.66,4.41-3.94,6.65c-0.4,0.7-0.78,1.42-1.13,2.15c-0.33,0.7-0.68,1.37-1.16,1.99c-0.72,0.92-1.12,2.02-1.62,3.07
			c-0.55,1.15-1.14,2.26-2.13,3.12c-0.3,0.27-0.48,0.69-0.67,1.07c-0.99,1.99-2.62,3.5-3.95,5.24c-2.02,2.65-4.28,5.11-6.48,7.62
			c-0.96,1.1-1.25,2.23-1.04,3.58c0.24,1.51,0.91,2.84,2.27,3.56c1.58,0.84,3.03,1.97,4.81,2.42c0.71,0.18,1.45,0.22,2.21,0.54
			c-1.02,0.73-1.9,1.42-3.29,1.33C179.6,104.51,178.65,104.18,177.7,103.74c-0.02-0.02-0.02-0.11-0.08-0.02
			C177.64,103.72,177.67,103.73,177.7,103.74z M146.54,83.83c0.55-0.9,1.04-1.67,1.5-2.46c1.46-2.47,2.78-5.03,4.62-7.25
			c0.21-0.25,0.4-0.48,0.78-0.55c0.31-0.05,0.66-0.27,0.8-0.54c0.35-0.73,0.93-1.28,1.35-1.94c0.12-0.19,0.27-0.37,0.22-0.78
			c-0.62,0.71-1.39,0.97-2.12,1.3c-0.56,0.26-1.04,0.63-1.42,1.11c-1.06,1.35-2.03,2.78-2.64,4.38c-0.7,1.84-1.62,3.54-2.72,5.15
			C146.62,82.67,146.4,83.11,146.54,83.83z M167.89,92.91c1.37-0.16,2.37-0.75,3.11-1.72c0.92-1.2,1.93-2.29,3.06-3.31
			c1.94-1.75,3.33-3.97,4.88-6.05c0.47-0.63,0.96-1.25,1.46-1.87c0.14-0.18,0.25-0.35,0.03-0.52c-0.23-0.16-0.31,0.08-0.43,0.2
			c-0.02,0.03-0.04,0.06-0.07,0.09c-3.36,4.42-7.03,8.56-11.13,12.31C168.51,92.3,168.24,92.57,167.89,92.91z M173.66,90.2
			c0.11-0.07,0.26-0.14,0.39-0.24c0.45-0.32,0.82-0.74,1.19-1.15c2.69-3.07,4.97-6.45,7.47-9.66c0.11-0.15,0.27-0.33,0.04-0.46
			c-0.2-0.12-0.27,0.12-0.36,0.24c-2.71,3.78-5.73,7.3-9.11,10.51c-0.11,0.11-0.31,0.2-0.19,0.4
			C173.2,90.03,173.38,90.16,173.66,90.2z M142.66,100.29c-3.24-3.54-3.24-3.54-2.39-8.17c-1.02,1.12-1.8,2.22-1.97,3.66
			c-0.07,0.57,0.08,1.09,0.4,1.57C139.68,98.79,141.11,99.62,142.66,100.29z"/>
		<path class="st0" d="M112.58,108.33c-2.88,1.36-5.85,2.51-8.86,3.56c-0.18,0.06-0.36,0.2-0.6,0.11c0.04-0.37,0.33-0.6,0.53-0.95
			c-0.72-0.12-1.39,0-2.06,0.16c-1.36,0.32-2.67,0.84-4.07,0.99c-1.95,0.2-3.86-0.02-5.71-0.66c-0.42-0.15-0.71-0.46-0.98-0.79
			c-0.4-0.48-0.88-0.82-1.5-0.97c-0.42-0.1-0.81-0.3-1.04-0.68c-0.32-0.53-0.82-0.83-1.36-1.07c-0.83-0.38-1.71-0.68-2.44-1.27
			c-1-0.81-1.72-1.81-2.17-3.01c-0.04-0.1-0.08-0.2-0.15-0.34c-0.24,0.22-0.15,0.47-0.18,0.68c-0.01,0.09-0.02,0.19-0.13,0.22
			c-0.11,0.02-0.17-0.05-0.2-0.14c-0.66-1.62-1.52-3.15-1.88-4.88c-0.06-0.27-0.06-0.54-0.03-0.82c0.09-0.8,0.24-1.6-0.07-2.4
			c-0.08-0.2-0.04-0.44,0.04-0.65c0.3-0.79,0.28-1.62,0.3-2.45c0.02-0.83,0.05-1.66,0.11-2.48c0.11-1.38,0.88-2.44,1.79-3.4
			c0.35-0.37,0.59-0.77,0.77-1.25c1.32-3.52,3.1-6.79,5.44-9.75c0.72-0.92,1.23-1.96,1.83-2.96c0.26-0.43,0.54-0.83,0.92-1.16
			c0.39-0.33,0.65-0.74,0.77-1.24c0.18-0.72,0.71-1.19,1.26-1.64c0.51-0.42,1.02-0.86,1.59-1.19c0.85-0.49,1.07-1.45,1.72-2.07
			c3.7-3.54,7.86-6.36,12.71-8.12c1.01-0.37,2-0.4,2.95,0.03c1.37,0.63,2.73,0.78,4.18,0.27c0.95-0.33,1.91-0.07,2.82,0.24
			c3.63,1.26,6.96,3.11,9.86,5.63c2.56,2.22,4,5.14,4.81,8.4c0.39,1.59,0.81,3.18,0.83,4.83c0.02,1.79-0.23,3.56-0.66,5.3
			c-0.8,3.24-2.21,6.19-4.07,8.95c-3.04,4.49-6.29,8.82-10.17,12.63c-2.05,2.01-4.27,3.79-6.9,4.99c-0.16,0.07-0.31,0.2-0.55,0.17
			c0.13-0.34,0.44-0.48,0.63-0.73c0.23-0.09,0.45-0.2,0.71-0.47C113.02,108.05,112.78,108.15,112.58,108.33z M113.97,107.62
			c-0.09,0.01-0.17,0.02-0.22,0.11c-0.02,0.02-0.13-0.02-0.06,0.07c0.02-0.03,0.03-0.05,0.05-0.08
			C113.83,107.7,113.92,107.7,113.97,107.62c0.01-0.01,0.02-0.02,0.03-0.03c0.01,0,0.01-0.01,0.01-0.02
			C114,107.58,113.99,107.6,113.97,107.62z M120.29,97.34c0.08-0.08,0.16-0.15,0.23-0.23c2.56-3.33,4.85-6.83,6.74-10.6
			c0.65-1.3,0.52-2.65,0.52-4.08c-1.11,1.66-1.83,3.42-2.59,5.13c-0.67,1.51-1.32,3.03-2.09,4.49c-0.92,1.76-1.92,3.48-2.88,5.21
			c-0.05,0.06-0.18,0.12-0.06,0.21C120.22,97.52,120.27,97.42,120.29,97.34z M111.57,63.35c-0.29,0-0.59,0-0.88,0
			c-0.09,0-0.18,0.02-0.27,0.04c-3.93,0.89-7.41,2.64-10.29,5.5c-2.38,2.36-4.2,5.12-5.73,8.08c-1.12,2.17-1.98,4.47-3.49,6.43
			c-0.06,0.07-0.09,0.16-0.14,0.24c-1.28,2.13-2.01,4.5-3.01,6.75c-0.31,0.71-0.57,1.44-0.73,2.2c-0.3,1.45-0.37,2.89,0.67,4.09
			c0.84,0.98,1.76,1.89,2.77,2.68c1.2,0.94,2.56,1.59,4,2.09c3.28,1.15,6.59,1.53,9.95,0.38c5.08-1.73,9.32-4.52,12-9.35
			c0.77-1.38,1.53-2.77,2.59-3.97c0.5-0.57,0.82-1.26,1.07-1.98c0.41-1.2,0.78-2.42,1.5-3.49c0.66-0.98,1.18-2.04,1.62-3.13
			c1.07-2.63,1.89-5.21,0.92-8.16c-0.53-1.6-1.04-3.12-2.1-4.43c-0.87-1.07-1.65-2.21-3.01-2.76c-0.93-0.38-1.87-0.63-2.88-0.68
			C114.59,63.79,113.1,63.4,111.57,63.35z M122.02,92.22c-2.94,1.8-4.25,4.7-5.19,7.85C118.56,97.45,120.29,94.84,122.02,92.22z
			 M100.56,107.53c0.98,0.5,1.7,0.56,2.62,0.06c1.37-0.75,2.78-1.44,4.16-2.17c0.45-0.24,0.85-0.56,1.13-1.14
			C105.76,105.31,103.27,106.58,100.56,107.53z M106.57,107.1c2.33-0.77,6.06-2.64,6.59-3.96
			C110.74,104.17,108.68,105.68,106.57,107.1z M97.69,108.87c1.39,0.66,3.2,0.53,3.79-0.25C100.23,108.71,98.94,107.85,97.69,108.87
			z M88.82,79.79c-0.98,0.56-2.25,3.16-2.11,4.17C87.44,82.59,88.28,81.35,88.82,79.79z M106.42,107.23
			c-0.01-0.01-0.02-0.03-0.03-0.03c-0.01,0-0.02,0.01-0.04,0.02c0.01,0.01,0.02,0.03,0.03,0.03
			C106.4,107.25,106.41,107.23,106.42,107.23z M113.47,107.86c-0.01,0.01-0.02,0.02-0.04,0.02c0.01,0.01,0.02,0.03,0.03,0.03
			c0.01,0,0.02-0.01,0.04-0.02C113.49,107.88,113.48,107.87,113.47,107.86z"/>
		<path class="st0" d="M115.81,40.68c-1.25,0.45-2.34,1.04-3.45,1.56c-0.68,0.32-1.36,0.67-2.11,0.81
			c-0.57,0.11-0.77-0.06-0.83-0.64c-0.08-0.84,0.31-1.45,0.92-1.96c0.57-0.47,1.23-0.8,1.91-1.09c1.38-0.6,2.64-1.38,3.82-2.31
			c0.56-0.44,0.95-0.98,1.15-1.65c1.23-4.11,3.11-7.94,5.02-11.76c2.26-4.5,4.87-8.8,7.77-12.91c1.88-2.66,4.18-4.84,7.21-6.17
			c0.87-0.39,1.66-0.94,2.48-1.45c1.78-1.1,3.69-1.91,5.75-2.34c1.5-0.31,2.1-0.06,2.36,1.81c0.22,1.6-0.23,3.14-0.7,4.65
			c-0.22,0.7-0.48,1.39-0.82,2.05c-0.42,0.82-0.77,1.67-0.94,2.58c-0.05,0.27-0.16,0.54-0.3,0.77c-1.96,3.16-3.83,6.39-6.31,9.19
			c-2.28,2.58-4.6,5.13-6.98,7.62c-2.16,2.27-4.43,4.42-6.89,6.38c-0.13,0.1-0.27,0.18-0.29,0.38c-0.18,2.21,0.27,4.18,2.05,5.67
			c0.93,0.78,2.03,0.97,3.22,0.85c0.38-0.04,0.41-0.3,0.48-0.56c0.8-3.11,2.13-5.99,3.96-8.63c1.84-2.65,4.09-4.86,6.9-6.5
			c1.78-1.04,3.5-2.19,5.26-3.26c0.61-0.38,1.26-0.67,2.02-0.64c0.3,0.01,0.6-0.14,0.9-0.25c0.56-0.19,1.13-0.33,1.73-0.29
			c0.88,0.07,1.34,0.63,1.19,1.49c-0.24,1.46-0.91,2.76-1.63,4.02c-2.22,3.93-4.87,7.55-8.13,10.7c-1.31,1.27-2.55,2.61-3.93,3.81
			c-0.3,0.26-0.23,0.49-0.1,0.78c0.95,2.15,2.6,3.55,4.78,4.32c3.4,1.21,6.71,0.74,9.95-0.62c0.85-0.36,1.67-0.78,2.47-1.23
			c1.18-0.65,2.35-1.3,3.58-1.85c0.84-0.38,1.64-0.84,2.39-1.38c0.24-0.17,0.49-0.33,0.75-0.46c0.74-0.39,1.24-0.36,1.62,0.06
			c0.39,0.43,0.47,1.44,0.18,1.94c-0.1,0.18-0.28,0.24-0.44,0.31c-0.73,0.32-1.42,0.71-2.07,1.16c-0.5,0.34-1.01,0.67-1.14,1.35
			c-0.05,0.28-0.34,0.42-0.58,0.57c-0.69,0.45-1.43,0.84-1.82,1.64c-0.11,0.21-0.35,0.39-0.56,0.52c-2.65,1.63-5.27,3.31-8.18,4.48
			c-2.61,1.05-5.31,1.62-8.14,1.47c-1.74-0.09-3.45-0.34-5.07-1.01c-2.88-1.19-4.95-3.16-5.85-6.2c-0.13-0.44-0.24-0.53-0.7-0.33
			c-1.66,0.71-3.34,1.34-5.14,1.65c-4.38,0.78-7.99-1.67-8.77-6C115.61,42.74,115.67,41.75,115.81,40.68z M127.36,27
			c0.14-0.14,0.3-0.27,0.43-0.42c1.34-1.52,2.7-3.02,4.02-4.55c2.81-3.26,5.23-6.75,6.64-10.86c0.39-1.15,0.81-2.29,1.03-3.49
			c0.04-0.2,0.13-0.46-0.1-0.61c-0.22-0.14-0.46-0.08-0.69,0.01c-0.26,0.1-0.4,0.32-0.55,0.53c-3.85,5.1-6.84,10.69-9.55,16.44
			c-0.45,0.96-0.98,1.89-1.25,2.93c-0.02,0.02-0.05,0.03-0.07,0.05c0.02,0.02,0.03,0.03,0.05,0.05
			C127.33,27.05,127.34,27.03,127.36,27z M138.44,37.54c0.29-0.2,0.5-0.33,0.68-0.47c0.67-0.5,1.24-1.1,1.75-1.75
			c1.36-1.72,2.64-3.49,3.78-5.36c0.29-0.48,0.45-1.01,0.36-1.58c-0.02-0.16-0.04-0.35-0.22-0.42c-0.2-0.08-0.3,0.1-0.42,0.2
			c-0.96,0.83-1.85,1.74-2.67,2.71C140.12,32.79,138.9,34.9,138.44,37.54z"/>
		<path class="st0" d="M241.81,72.1c0.4,0.37,0.99,0.4,1.37,0.91c-0.5,0.07-0.92-0.09-1.35-0.17c-0.48-0.09-0.95-0.13-1.43-0.08
			c-0.21,0.02-0.44,0.07-0.52,0.26c-0.11,0.23,0.09,0.41,0.23,0.57c0.39,0.43,0.92,0.6,1.46,0.72c0.68,0.15,1.37,0.29,2.05,0.44
			c0.26,0.06,0.51,0.16,0.78,0.39c-1.53,0.25-2.96,0.44-4.44,0.19c-0.9-0.15-1.83-0.17-2.75-0.21c-1.24-0.05-2.41-0.51-3.63-0.66
			c-2.89-0.35-5.73-0.15-8.54,0.6c-0.05,0.01-0.09,0.04-0.15,0.07c0.4,0.12,0.84,0.14,1.44,0.04c2.12-0.36,4.22-0.11,6.33,0.06
			c2.86,0.23,5.59,1.09,8.38,1.67c0.9,0.19,1.77,0.56,2.71,0.62c0.22,0.01,0.47,0.1,0.64,0.37c-1.14,0.33-2.29,0.33-3.43,0.23
			c-1.14-0.1-2.27-0.25-3.4-0.38c-0.11-0.01-0.24,0-0.33-0.04c-1.64-0.88-3.47-0.75-5.23-0.96c-3.32-0.38-6.4,0.59-9.49,1.61
			c-3.16,1.04-5.81,2.9-8.38,4.94c-0.55,0.44-1.1,0.87-1.73,1.18c-1.04,0.52-1.8,1.32-2.41,2.29c-1.34,2.12-2.73,4.22-4.4,6.08
			c-2.16,2.4-3.57,5.31-5.55,7.83c-0.91,1.16-1.73,2.37-2.87,3.34c-1.45,1.23-2.59,2.78-3.74,4.28c-0.58,0.76-1.34,0.55-2.04,0.67
			c-0.28,0.05-0.37-0.24-0.4-0.5c-0.06-0.59,0.17-1.08,0.51-1.53c0.25-0.34,0.5-0.69,0.74-1.03c0.07-0.11,0.16-0.26,0.06-0.35
			c-0.08-0.07-0.24-0.08-0.36-0.06c-0.49,0.08-0.79,0.44-1.09,0.79c-0.58,0.69-1.14,1.4-1.72,2.09c-0.16,0.2-0.35,0.56-0.54,0.51
			c-0.51-0.14-0.97,0.2-1.47,0.07c-0.26-0.07-0.28-0.26-0.29-0.47c-0.02-0.52,0.18-0.97,0.45-1.4c0.24-0.37,0.48-0.74,0.72-1.11
			c0.23-0.35,0.15-0.55-0.27-0.67c-0.75-0.22-0.89-0.53-0.49-1.23c0.38-0.66,0.64-1.3,0.5-2.09c-0.08-0.44,0.18-0.85,0.45-1.21
			c4.79-6.41,9.11-13.13,13.61-19.74c0.56-0.82,1.15-1.63,1.33-2.64c0.02-0.11,0.06-0.22,0.13-0.3c1.33-1.61,1.98-3.57,2.82-5.43
			c0.83-1.83,1.98-3.49,2.87-5.29c0.88-1.77,1.4-3.67,2.09-5.52c0.07-0.2,0.11-0.44,0.07-0.65c-0.14-0.75,0.22-1.23,0.75-1.68
			c0.44-0.37,0.78-0.35,1.1,0.12c0.24,0.35,0.45,0.72,0.7,1.06c0.3,0.42,0.7,0.71,1.2,0.84c0.56,0.15,0.73-0.01,0.73-0.59
			c0-0.27-0.29-0.58-0.05-0.77c0.27-0.21,0.68-0.19,1.02-0.13c0.54,0.09,1.27,0.06,1.57,0.39c0.36,0.4,0.82,0.6,1.2,0.91
			c0.69,0.56,0.62,1.16,0.37,1.85c-0.12,0.33-0.26,0.65-0.39,0.97c-0.23,0.56-0.61,1.1-0.25,1.76c0.46-0.24,0.31-0.87,0.72-1.31
			c0.23,1.92-0.63,3.51-1.14,5.17c0.05,0.03,0.08,0.07,0.1,0.06c2.83-1.36,5.84-2.23,8.74-3.41c4.86-1.98,9.85-2.08,14.91-0.99
			c0.32,0.07,0.63,0.2,0.95,0.3c0.04,0.02,0.12,0.02,0.09,0.17c-1.53-0.13-3.08-0.27-4.63-0.41c1.41,1.04,3.06,1.46,4.7,1.94
			c-0.11,0.3-0.27,0.37-0.58,0.34c-1.84-0.13-3.62-0.63-5.45-0.86c-0.14-0.02-0.29-0.04-0.44-0.06c0.39,0.85,1.16,1.15,1.94,1.46
			c1.13,0.44,2.26,0.88,3.45,1.16c0.47,0.11,0.59,0.6,0.99,0.79c-0.96,0.04-1.87-0.14-2.79-0.25c-0.2-0.02-0.48-0.2-0.58,0.05
			c-0.09,0.22,0.1,0.45,0.29,0.62c0.43,0.39,0.99,0.46,1.53,0.58c0.26,0.06,0.53,0.09,0.83,0.15c-0.13,0.19-0.6,0.23-0.21,0.57
			c0.06,0.06-0.1,0.13-0.18,0.12C242.13,72.16,241.97,72.12,241.81,72.1z M203.26,84.06c0.69-0.68,1.26-1.31,1.75-2
			c1.59-2.25,3.05-4.6,4.94-6.63c1.98-2.13,2.37-4.81,2.68-7.52c0.02-0.18,0.14-0.46-0.11-0.53c-0.2-0.06-0.27,0.21-0.36,0.36
			c-0.5,0.88-0.97,1.77-1.48,2.65c-0.16,0.27-0.26,0.49-0.16,0.82c0.1,0.3,0.08,0.6-0.11,0.9c-0.56,0.89-1.02,1.83-1.49,2.77
			c-0.93,1.84-1.85,3.69-3.46,5.07c-0.04,0.03-0.08,0.08-0.1,0.13c-0.37,0.92-1.04,1.65-1.55,2.47
			C203.54,82.97,203.25,83.41,203.26,84.06z M195.53,96.18c1.64-2.93,3.42-5.57,5.32-8.21c-0.27,0.01-0.37,0.15-0.49,0.25
			c-1.68,1.5-3.02,3.27-4.2,5.17C195.67,94.18,195.41,95.06,195.53,96.18z M241.6,72.04l-0.02,0.02l0.04,0.01L241.6,72.04z"/>
		<path class="st0" d="M102.44,29.11c1.22,0,1.53,0.19,1.96,1.97c0.38,1.58,0.02,3.16-0.65,4.62c-0.31,0.67-0.35,1.25-0.09,1.9
			c0.27,0.66,0.56,1.32,0.84,1.98c0.36,0.84,0.14,1.59-0.39,2.27c-1.02,1.31-2.09,2.62-3.4,3.61c-1.23,0.92-2.55,1.82-4.13,2.15
			c-0.56,0.12-1.09,0.02-1.59-0.27c-0.22-0.13-0.4-0.29-0.42-0.55c-0.04-0.53-0.4-0.76-0.86-0.88c-1.29-0.33-2.06-1.31-2.7-2.35
			c-0.79-1.29-1.27-2.73-1.56-4.22c-0.11-0.55-0.02-1,0.33-1.44c0.37-0.45,0.81-0.8,1.26-1.16c0.52-0.41,1.04-0.83,1.48-1.32
			c0.36-0.4,0.79-0.71,1.25-0.98c0.93-0.54,1.64-1.36,2.45-2.06c1.33-1.14,2.67-2.27,4.33-2.91
			C101.16,29.25,101.79,29.11,102.44,29.11z"/>
		<path class="st0" d="M60.75,92.68c-0.01,0.02-0.02,0.03-0.04,0.05c0-0.01,0-0.03,0-0.03C60.73,92.69,60.74,92.69,60.75,92.68
			C60.76,92.68,60.75,92.68,60.75,92.68z"/>
		<path class="st0" d="M85.02,50.69c-0.03,0.08-0.06,0.16-0.17,0.17c-0.01,0-0.03-0.02-0.05-0.02c0.05-0.06,0.11-0.12,0.16-0.18
			C84.99,50.67,85.01,50.68,85.02,50.69z"/>
		<path class="st0" d="M70.47,74.49c-0.01,0.01-0.02,0.02-0.03,0.04c-0.01-0.01-0.03-0.03-0.03-0.04c0-0.01,0.02-0.02,0.03-0.04
			C70.45,74.46,70.46,74.48,70.47,74.49z"/>
		<path class="st0" d="M185.8,69.6c-0.06,0.08-0.13,0.16-0.19,0.24c-0.02-0.02-0.05-0.04-0.07-0.06c0.05-0.09,0.11-0.18,0.16-0.27
			C185.73,69.54,185.77,69.57,185.8,69.6z"/>
		<path class="st0" d="M162.24,65.51c-0.08,0.06-0.17,0.12-0.25,0.18l0.01,0.01c-0.07-0.15,0.04-0.22,0.14-0.29
			C162.16,65.45,162.2,65.48,162.24,65.51z"/>
		<path class="st0" d="M192.36,62.56c-0.05,0.04-0.1,0.09-0.15,0.13c-0.08-0.1-0.01-0.16,0.05-0.23
			C192.3,62.5,192.33,62.53,192.36,62.56z"/>
		<path class="st0" d="M185.6,69.84c-0.04,0.05-0.06,0.16-0.13,0.1c-0.06-0.05,0-0.12,0.07-0.16
			C185.56,69.8,185.58,69.82,185.6,69.84z"/>
		<path class="st0" d="M158.84,66.87c-0.06,0.05-0.12,0.11-0.17,0.16c0,0-0.02-0.02-0.02-0.02c-0.01-0.1,0.03-0.17,0.11-0.22
			C158.78,66.82,158.81,66.84,158.84,66.87z"/>
		<path class="st0" d="M158.67,67.03c-0.03,0.02-0.05,0.04-0.08,0.06c-0.02-0.06,0.01-0.08,0.06-0.08
			C158.65,67.01,158.67,67.03,158.67,67.03z"/>
		<path class="st0" d="M177.7,103.74c-0.03-0.01-0.05-0.01-0.08-0.02C177.68,103.63,177.67,103.71,177.7,103.74
			C177.69,103.74,177.7,103.74,177.7,103.74z"/>
		<path class="st0" d="M161.98,65.7c-0.02,0.02-0.04,0.04-0.06,0.06c-0.02-0.07,0.01-0.08,0.07-0.05
			C161.99,65.71,161.98,65.7,161.98,65.7z"/>
		<path class="st0" d="M120.29,97.34c-0.01,0.08-0.07,0.18-0.13,0.13c-0.12-0.08,0.01-0.14,0.06-0.21
			C120.24,97.29,120.27,97.31,120.29,97.34z"/>
		<path class="st0" d="M106.42,107.23c-0.01,0.01-0.02,0.02-0.03,0.02c-0.01,0-0.02-0.02-0.03-0.03c0.01-0.01,0.02-0.02,0.04-0.02
			C106.4,107.2,106.41,107.22,106.42,107.23z"/>
		<path class="st0" d="M113.97,107.62c0.01-0.02,0.03-0.03,0.04-0.05c0,0.01-0.01,0.02-0.01,0.02
			C113.99,107.6,113.98,107.6,113.97,107.62C113.96,107.61,113.97,107.62,113.97,107.62z"/>
		<path class="st0" d="M113.74,107.71c-0.02,0.03-0.03,0.05-0.05,0.08C113.62,107.7,113.73,107.75,113.74,107.71
			C113.75,107.72,113.74,107.71,113.74,107.71z"/>
		<path class="st0" d="M127.36,27c-0.01,0.03-0.03,0.05-0.04,0.08c-0.02-0.02-0.03-0.03-0.05-0.05c0.02-0.02,0.05-0.03,0.07-0.05
			C127.34,26.98,127.36,27,127.36,27z"/>
		<polygon class="st0" points="241.6,72.04 241.61,72.07 241.58,72.06 		"/>
	</g>
</g>
<rect x="-1978" y="-656" class="st1" width="400" height="400"/>
<g>
</g>
<g>
</g>
<g>
</g>
<g>
</g>
<g>
</g>
<g>
</g>
<g>
</g>
<g>
</g>
<g>
</g>
<g>
</g>
<g>
</g>
</svg>
