<?xml version="1.0" encoding="utf-8"?>
<!-- Generator: Adobe Illustrator 24.1.2, SVG Export Plug-In . SVG Version: 6.00 Build 0)  -->
<svg version="1.1" id="Camada_1" xmlns="http://www.w3.org/2000/svg" xmlns:xlink="http://www.w3.org/1999/xlink" x="0px" y="0px"
	 viewBox="0 0 256 256" style="enable-background:new 0 0 256 256;" xml:space="preserve">
<style type="text/css">
	.st0{fill:#FF5D5B;}
</style>
<g>
	<path class="st0" d="M78.4,143.5c-4.2,4-8.1,7.8-12.3,11.4c-1.1,1-3.1,1-4.7,1.5c-0.5-1.8-1.6-3.7-1.3-5.3c0.3-1.8,1.6-3.5,2.8-5
		c1.9-2.2,4.2-4.1,6.2-6.3c4.2-4.6,6.6-9.6,6.8-16.2c1-29.4,5.3-58.3,15.3-86.1c3-8.5,9.3-14.5,15.1-20.7c4.8-5.2,10-10.2,15.6-14.5
		c5.1-4,10.2-2.1,11.4,4.3c1.2,6.6,0.6,13.5,1.2,20.2c1,11.1-2.1,21.6-5.9,31.5c-6.4,17-14.3,33.5-21.9,50.1
		c-2.8,6.2-6.3,12.2-10,17.9c-2.2,3.4-1.3,5.8,0.7,8.3c2.2,2.8,5,4.1,8.6,2.5c12.3-5.3,19.3-14.9,22.5-27.6c2-8,3.6-16.2,5.5-24.2
		c0.3-1.4,0.8-3,1.7-4c1.5-1.5,3.7-3.9,5.1-3.6c2,0.4,3.6,2.8,5.3,4.5c0.9,1,1.4,3.1,2.4,3.3c5.1,1.1,4.7,4.1,3.8,8.1
		c-2.2,9.9-4,20-6,29.9c0.5,0.4,1.1,0.8,1.6,1.2c11.6-11.5,23.3-23,34.8-34.7c2.5-2.5,4.3-5.7,6.6-8.4c0.9-1.1,2.4-1.7,3.6-2.5
		c0.5,1.1,0.8,2.3,1.4,3.3c5,7.4-1.4,11.2-4.9,15.8c-2.3,3.1-4.9,5.9-7.8,9.4c3.9-3.3,7.2-6.1,10.6-9c0.4,0.3,0.8,0.7,1.2,1
		c-3.5,4.1-6.6,8.5-10.4,12.1c-12,11.4-24.2,22.7-36.7,33.7c-4.1,3.6-3.8,8.2-3.9,12.5c-0.4,22.8-5.7,44.5-14.9,65.2
		c-4.2,9.4-10.5,18-16.7,26.3c-5.1,6.8-13.3,7.4-21,6.5c-4.3-0.5-8.5-3.3-12.5-5.6c-5-2.8-5.7-8.3-6.3-13c-0.9-7.4-0.8-15-0.4-22.5
		C71,204.2,76,195.1,82,187.3c8-10.4,17.6-19.7,25.7-28.6C96.1,160.4,84.8,157.8,78.4,143.5z M91.4,236
		c21.5-16.3,25.5-40.6,30.9-65.6c-1.8,0.9-2.4,1-2.8,1.4c-1.6,1.6-3,3.5-4.7,4.9C102,186.8,94.4,200.5,88.1,215
		C85,222.2,83.9,231,91.4,236z M98.1,88.6c12.9-29,17.9-53.5,12.4-61.8C103.3,47.1,100.3,67.8,98.1,88.6z"/>
	<path class="st0" d="M155.1,39.4c5.7,0.5,7.9,3.2,8.8,7.2c0.3,1.4,0.3,3,0.9,4.1c4.1,7,0.5,19-7.2,21.3c-2.6,0.8-6.2-0.7-9.1-1.7
		c-7.2-2.6-9.7-10-5.6-16.4c2.2-3.4,4.2-7,6.8-10.1C151.4,41.8,153.8,40.5,155.1,39.4z"/>
	<path class="st0" d="M184.7,137.1c2.1,2.4,4.3,3.9,5.2,6.1c1.8,4.4,3.5,8.9,0.3,13.8c-3.2,4.9-8,6-13.3,2.5c-4.9-3.3-5.5-7-1.9-12
		c1.4-2,2.3-4.3,3.9-6.2C180.2,139.9,182,139,184.7,137.1z"/>
</g>
<g>
</g>
<g>
</g>
<g>
</g>
<g>
</g>
<g>
</g>
<g>
</g>
</svg>
