<?xml version="1.0" encoding="utf-8"?>
<!-- Generator: Adobe Illustrator 24.1.2, SVG Export Plug-In . SVG Version: 6.00 Build 0)  -->
<svg version="1.1" id="Camada_1" xmlns="http://www.w3.org/2000/svg" xmlns:xlink="http://www.w3.org/1999/xlink" x="0px" y="0px"
	 viewBox="0 0 128 128" style="enable-background:new 0 0 128 128;" xml:space="preserve">
<style type="text/css">
	.st0{fill:#FFFFFF;}
</style>
<g>
	<path class="st0" d="M75.8,82.7c-23.8,17.6-51.9,10.2-66-7.5C-4.4,57.2-3,30.3,13.1,14C29.7-2.8,55.8-4.8,74.6,9.4
		c17.7,13.4,26.3,41.8,8.2,66.3c2.4,2.5,4.3,5.5,8.7,5.3c1.7-0.1,3.9,1.4,5.2,2.8c9.5,9.3,19,18.8,28.3,28.3c3.9,4,4,9.4,0.4,13.1
		c-3.7,3.8-9.2,3.8-13.3-0.2c-9.6-9.5-19.1-19-28.5-28.6c-1.3-1.3-2.6-3.4-2.5-5C81.3,87,78.1,85.2,75.8,82.7z M46.6,9.1
		C26.1,8.9,9.3,25.3,9.1,45.9C8.8,66.5,25.4,83.6,46,83.8C66.4,84,83.5,67.3,83.8,47.1C84.1,26.3,67.5,9.4,46.6,9.1z"/>
	<path class="st0" d="M77.5,44.4c-0.6-2.7-1.1-5.5-2-8.2c-4.1-12-15.4-20.4-27.9-20.6c-1.5,0-3.4,1.3-4.4,2.5
		c-0.5,0.6,0.5,2.9,1.4,3.8c0.7,0.7,2.4,0.6,3.7,0.8C60.4,24.3,69.4,33.3,70,44.9c0.1,2.7,0.7,5.1,3.9,5
		C77.2,49.8,77.3,47.1,77.5,44.4z"/>
	<path class="st0" d="M77.5,44.4c-0.1,2.7-0.3,5.4-3.6,5.5c-3.2,0.1-3.8-2.3-3.9-5c-0.6-11.6-9.5-20.6-21.7-22.2
		c-1.3-0.2-2.9,0-3.7-0.8c-0.9-0.9-1.9-3.2-1.4-3.8c1-1.3,2.9-2.6,4.4-2.5c12.5,0.2,23.8,8.6,27.9,20.6
		C76.4,38.9,76.8,41.7,77.5,44.4z"/>
</g>
<g>
</g>
<g>
</g>
<g>
</g>
<g>
</g>
<g>
</g>
<g>
</g>
</svg>
