<svg width="100" height="100" viewBox="0 0 15 15" fill="none" xmlns="http://www.w3.org/2000/svg">
<path d="M6.59191 11.5355C7.90304 11.5355 9.16047 11.0147 10.0876 10.0876C11.0147 9.16046 11.5355 7.90303 11.5355 6.59191C11.5355 5.28078 11.0147 4.02335 10.0876 3.09624C9.16047 2.16913 7.90304 1.64829 6.59191 1.64829C5.28078 1.64829 4.02335 2.16913 3.09624 3.09624C2.16913 4.02335 1.64829 5.28078 1.64829 6.59191C1.64829 7.90303 2.16913 9.16046 3.09624 10.0876C4.02335 11.0147 5.28078 11.5355 6.59191 11.5355ZM11.7992 10.6341L14.7489 13.5838C14.8275 13.6599 14.8902 13.7509 14.9333 13.8514C14.9765 13.952 14.9991 14.0601 15 14.1695C15.0008 14.2789 14.9799 14.3874 14.9384 14.4886C14.8969 14.5898 14.8357 14.6818 14.7583 14.7591C14.6808 14.8364 14.5888 14.8975 14.4875 14.9389C14.3862 14.9802 14.2777 15.001 14.1683 15C14.0589 14.9989 13.9508 14.9761 13.8503 14.9329C13.7498 14.8896 13.659 14.8268 13.583 14.7481L10.6333 11.7984C9.30881 12.8265 7.64226 13.3112 5.97293 13.1539C4.3036 12.9965 2.75698 12.2089 1.64792 10.9514C0.538855 9.69387 -0.0492814 8.06094 0.00323726 6.38504C0.0557559 4.70913 0.744981 3.11623 1.93061 1.93061C3.11623 0.74498 4.70914 0.0557558 6.38504 0.00323726C8.06095 -0.0492813 9.69388 0.538854 10.9514 1.64792C12.209 2.75698 12.9966 4.3036 13.1539 5.97293C13.3113 7.64225 12.8265 9.3088 11.7984 10.6333L11.7992 10.6341Z" fill="#68BFB7"/>
</svg>
