<svg width="72" height="72" viewBox="0 0 72 72" fill="none" xmlns="http://www.w3.org/2000/svg">
<path d="M56.7616 40.8909L56.7643 40.8895L56.7644 40.8895L56.7667 40.8883C56.7715 40.8857 56.7804 40.8811 56.789 40.8768C58.768 39.8749 61.3132 40.5374 62.8451 42.2588L63.0269 42.1607L56.7616 40.8909ZM56.7616 40.8909L56.0607 41.2683M56.7616 40.8909L56.0607 41.2683M18.2665 43.3711L18.2674 43.3704C20.417 41.7446 22.9747 40.7453 25.6572 40.4833C28.3395 40.2214 31.0419 40.7068 33.4654 41.8858L18.2665 43.3711ZM18.2665 43.3711C18.2464 43.3864 18.2197 43.407 18.1925 43.432L16.1743 45.2287C16.1743 45.2287 16.1742 45.2287 16.1742 45.2288C15.5001 45.8274 14.7137 46.2846 13.8617 46.5742L12.7882 43.0504L12.7882 43.0504M18.2665 43.3711L12.7882 43.0504M12.7882 43.0504C12.7157 42.8127 12.5688 42.6046 12.3692 42.4567C12.1695 42.3089 11.9276 42.2291 11.6792 42.2291H1.90948C1.74538 42.2291 1.58314 42.2639 1.4335 42.3313C1.28386 42.3986 1.15022 42.497 1.04142 42.6199C0.932625 42.7427 0.851149 42.8873 0.80238 43.044C0.753612 43.2007 0.738662 43.3659 0.758519 43.5288L0.758521 43.5288M12.7882 43.0504L0.758521 43.5288M0.758521 43.5288L4.01503 70.2309C4.01503 70.2309 4.01503 70.2309 4.01503 70.2309C4.0493 70.512 4.18528 70.7709 4.39732 70.9586C4.60935 71.1464 4.88278 71.25 5.166 71.25H19.8197C20.0009 71.25 20.1796 71.2076 20.3414 71.126C20.5032 71.0445 20.6436 70.9262 20.7515 70.7806C20.8593 70.635 20.9315 70.4661 20.9623 70.2876C20.9931 70.109 20.9816 69.9257 20.9287 69.7524L19.0593 63.6179L24.8874 59.9343C25.6327 59.524 26.506 59.4118 27.3309 59.6207L27.3316 59.6209M0.758521 43.5288L27.3316 59.6209M27.3316 59.6209C27.3538 59.6265 27.3785 59.6321 27.4047 59.6367C27.4052 59.6368 27.4056 59.6369 27.4061 59.6369L39.5996 61.8823L39.6009 61.8825M27.3316 59.6209L39.6009 61.8825M39.6009 61.8825C42.9677 62.485 46.439 61.9949 49.5075 60.4838L49.5076 60.4837M39.6009 61.8825L49.5076 60.4837M49.5076 60.4837C49.5569 60.4594 49.6044 60.4316 49.6498 60.4004M49.5076 60.4837L49.6498 60.4004M23.7293 57.9233C24.9843 57.2194 26.4598 57.0186 27.8571 57.3616L40.0143 59.6004C40.0146 59.6004 40.0148 59.6004 40.0151 59.6005C42.8643 60.1096 45.8014 59.7034 48.4053 58.4402L68.3993 44.7129C67.8667 44.2313 67.2044 43.9124 66.4913 43.7981C65.681 43.6683 64.8506 43.8097 64.129 44.2004L64.1286 44.2006L54.1018 49.6083L54.0997 49.6095L53.2924 50.035C53.2966 50.131 53.2993 50.2282 53.2993 50.3266C53.2993 50.6341 53.1771 50.929 52.9597 51.1464C52.7422 51.3639 52.4473 51.486 52.1398 51.486C52.1288 51.486 52.1183 51.4857 52.112 51.4855L52.111 51.4855L52.0986 51.4851H52.0873L52.0873 51.4849L45.1669 51.1719C43.1551 51.0811 41.1393 51.1742 39.1445 51.4499L39.1422 51.4502C38.8391 51.4892 38.5329 51.4069 38.2902 51.2214C38.0474 51.0358 37.8877 50.7619 37.8458 50.4592C37.8039 50.1566 37.8832 49.8496 38.0664 49.6051C38.2495 49.3605 38.5219 49.1982 38.8241 49.1533L38.8266 49.1529C40.9614 48.858 43.1187 48.7583 45.2717 48.8551L45.2717 48.8551L50.8251 49.1063C50.5679 48.1172 50.0056 47.2308 49.2142 46.5755C48.3407 45.8522 47.2426 45.4557 46.1085 45.454C46.1084 45.454 46.1083 45.454 46.1082 45.454L37.9953 45.454H37.995C36.3662 45.4518 34.7588 45.0835 33.2916 44.3763L33.2913 44.3762L32.4548 43.9715L32.4542 43.9712C30.4198 42.9813 28.1517 42.5721 25.8996 42.7888C23.651 43.0051 21.5055 43.8369 19.6988 45.1928L17.715 46.9594L17.7149 46.9594C16.7911 47.7814 15.7098 48.4054 14.5379 48.7942L18.3566 61.3179L23.6743 57.9561L23.8086 58.167L23.675 57.9556L23.6746 57.9559C23.6915 57.9452 23.7099 57.934 23.7293 57.9233ZM23.7293 57.9233C23.7297 57.9231 23.73 57.9229 23.7304 57.9228L23.8506 58.142L23.7282 57.9239C23.7286 57.9237 23.729 57.9235 23.7293 57.9233ZM56.0607 41.2683C55.0333 40.4424 53.7837 39.9374 52.4683 39.8186C51.097 39.6947 49.7209 39.9965 48.5274 40.6829L44.015 43.137L37.9967 43.137C37.9966 43.137 37.9966 43.137 37.9965 43.137C36.7172 43.1353 35.4546 42.846 34.3021 42.2905L56.0607 41.2683ZM49.6498 60.4004C49.6498 60.4004 49.6498 60.4004 49.6498 60.4004M49.6498 60.4004L49.6498 60.4004M49.6498 60.4004L70.744 45.9168C70.9877 45.7495 71.1582 45.4955 71.2208 45.2067C71.2835 44.9179 71.2335 44.6161 71.0811 44.3629C70.2804 43.0295 68.9962 42.0564 67.4959 41.6461C65.9957 41.2358 64.395 41.4201 63.0272 42.1605L49.6498 60.4004ZM34.3018 42.2904L33.4659 41.8861L34.3018 42.2904ZM49.649 42.7129L49.6537 42.7102L49.6541 42.7099L49.6548 42.7096L49.6609 42.7063C49.6646 42.7043 49.6721 42.7001 49.6811 42.6945C50.3576 42.3046 51.1262 42.1029 51.9071 42.1102C52.5385 42.1161 53.1592 42.2586 53.7274 42.5257L50.2072 44.421C49.6103 44.0052 48.9543 43.6834 48.2621 43.4658L49.6489 42.7129L49.649 42.7129ZM51.9388 46.1235L57.8472 42.9402C58.7302 42.5 59.8576 42.7739 60.6903 43.4212L53.0127 47.5633L53.0105 47.5644L52.7937 47.6786C52.5741 47.1269 52.2869 46.6045 51.9388 46.1235ZM18.254 68.9311H6.19194L3.21906 44.548H10.82L18.254 68.9311Z" fill="#" stroke="#68bfb7" stroke-width="0.5"/>
<path d="M8.61182 65.4182V65.4185C8.61182 66.0342 8.79441 66.6361 9.1365 67.1481C9.4786 67.6601 9.96483 68.0592 10.5337 68.2948C11.1026 68.5304 11.7286 68.5921 12.3325 68.472C12.9364 68.3518 13.4912 68.0553 13.9266 67.6199C14.362 67.1845 14.6585 66.6298 14.7786 66.0258C14.8988 65.4219 14.8371 64.7959 14.6015 64.227C14.3658 63.6582 13.9668 63.1719 13.4548 62.8298C12.9428 62.4877 12.3409 62.3051 11.7251 62.3051L11.7249 62.3051C10.8995 62.3061 10.1082 62.6343 9.52462 63.2179C8.94101 63.8016 8.61273 64.5928 8.61182 65.4182ZM11.7255 64.6244L11.7459 64.6244C11.8957 64.6283 12.0416 64.6745 12.1665 64.758C12.2971 64.8453 12.3989 64.9693 12.459 65.1145C12.5192 65.2596 12.5349 65.4193 12.5042 65.5734C12.4736 65.7275 12.3979 65.8691 12.2868 65.9802C12.1757 66.0913 12.0342 66.1669 11.8801 66.1976C11.726 66.2282 11.5663 66.2125 11.4211 66.1524C11.276 66.0922 11.1519 65.9904 11.0646 65.8598C10.9774 65.7292 10.9308 65.5757 10.9308 65.4186C10.9312 65.2081 11.015 65.0063 11.1639 64.8574C11.3129 64.7085 11.5149 64.6247 11.7255 64.6244Z" fill="#" stroke="#68bfb7" stroke-width="0.5"/>
<path d="M43.1635 10.8693V10.8681L43.1635 7.87114L43.1635 7.86997C43.1546 5.97857 42.3971 4.16767 41.0565 2.83337C39.7159 1.49907 37.9015 0.75 36.0101 0.75C34.1187 0.75 32.3042 1.49907 30.9637 2.83337C29.6231 4.16767 28.8656 5.97857 28.8567 7.86997V7.87114L28.8567 10.8681L28.8567 10.8693C28.8656 12.7607 29.6231 14.5716 30.9637 15.9059C32.3042 17.2402 34.1187 17.9893 36.0101 17.9893C37.9015 17.9893 39.7159 17.2402 41.0565 15.9059C42.3971 14.5716 43.1546 12.7607 43.1635 10.8693ZM31.1756 10.8675V7.87181C31.1828 6.59445 31.6952 5.37183 32.6009 4.47104C33.5068 3.57009 34.7325 3.06435 36.0101 3.06435C37.2877 3.06435 38.5134 3.57009 39.4193 4.47104C40.325 5.37183 40.8374 6.59445 40.8446 7.87181V10.8675C40.8374 12.1448 40.325 13.3675 39.4193 14.2682C38.5134 15.1692 37.2877 15.6749 36.0101 15.6749C34.7325 15.6749 33.5068 15.1692 32.6009 14.2682C31.6952 13.3675 31.1828 12.1448 31.1756 10.8675Z" fill="#" stroke="#68bfb7" stroke-width="0.5"/>
<path d="M49.0467 21.9945C48.5195 22.0671 48.0088 22.2293 47.5368 22.4738C48.0379 23.5287 48.2982 24.6829 48.2972 25.8527M49.0467 21.9945L48.0472 31.4369H48.2972M49.0467 21.9945C49.6141 22.6115 50.3004 23.1084 51.0647 23.4548C51.8695 23.8196 52.7425 24.0094 53.626 24.0118C54.5096 24.0141 55.3836 23.8288 56.1903 23.4682C56.9547 23.1266 57.6421 22.6348 58.2121 22.0226M49.0467 21.9945L49.1453 21.7304C49.706 22.3668 50.3954 22.8769 51.1679 23.2271C51.9404 23.5773 52.7785 23.7595 53.6267 23.7618C54.4749 23.764 55.3139 23.5861 56.0882 23.24C56.8626 22.8939 57.5547 22.3873 58.1187 21.7539M48.2972 25.8527L48.0472 25.8525H48.2972V25.8527ZM48.2972 25.8527V31.4369M48.2972 31.4369V31.6869H62.1229V31.4369M48.2972 31.4369H62.1229M62.1229 31.4369H62.3729V26.6933M62.1229 31.4369V26.6936M62.1229 26.6936L62.3729 26.6933M62.1229 26.6936V26.6933H62.3729M62.1229 26.6936C62.1218 25.5573 61.7135 24.4591 60.972 23.5981C60.2593 22.7707 59.2843 22.2151 58.2121 22.0226M62.3729 26.6933C62.3718 25.4973 61.942 24.3413 61.1614 23.435C60.3809 22.5287 59.3014 21.9323 58.1187 21.7539M58.1187 21.7539L58.3054 21.9201C58.2747 21.9546 58.2435 21.9888 58.2121 22.0226M58.1187 21.7539L58.0814 22.0011C58.1251 22.0077 58.1687 22.0149 58.2121 22.0226M9.87363 26.6941V31.4369H23.7232V25.8529V25.8525H23.9732C23.9716 24.6456 24.2566 23.4554 24.805 22.3802L9.87363 26.6941ZM9.87363 26.6941C9.88112 25.53 10.3133 24.4085 11.089 23.5404C11.8364 22.704 12.8531 22.1582 13.9603 21.9961C14.5275 22.6125 15.2134 23.1088 15.9772 23.4549C16.7819 23.8196 17.6547 24.0093 18.5382 24.0115C19.4216 24.0138 20.2954 23.8285 21.1019 23.468C21.8662 23.1263 22.5536 22.6346 23.1235 22.0225C23.5952 22.1066 24.0512 22.2622 24.4757 22.4836L9.87363 26.6941ZM8.71416 33.7559H23.7232V35.5934C23.7232 35.9009 23.8454 36.1958 24.0629 36.4133C24.2803 36.6307 24.5752 36.7529 24.8827 36.7529H47.1378C47.4453 36.7529 47.7402 36.6307 47.9576 36.4133C48.1751 36.1958 48.2972 35.9009 48.2972 35.5934V33.7559H63.2824C63.5899 33.7559 63.8848 33.6337 64.1022 33.4163C64.3197 33.1988 64.4418 32.9039 64.4418 32.5964V26.6933V26.6932C64.4408 24.8976 63.7563 23.1697 62.5273 21.8605C61.2986 20.5516 59.6178 19.7594 57.8263 19.6447C57.2141 19.6003 56.8901 19.9962 56.6924 20.2377L56.6793 20.2537L56.6791 20.2539C56.3009 20.7161 55.8221 21.0858 55.2793 21.3349C54.7365 21.584 54.144 21.7059 53.5469 21.6913C52.9499 21.6767 52.3641 21.526 51.8341 21.2507C51.3041 20.9755 50.844 20.5829 50.4888 20.1029C50.3781 19.953 50.2329 19.8321 50.0656 19.7502C49.8984 19.6685 49.714 19.6282 49.528 19.6327C48.3727 19.6586 47.2429 19.9705 46.2392 20.5389C45.5771 19.809 44.7837 19.209 43.8997 18.7705C42.9533 18.3011 41.9222 18.0264 40.8676 17.9627V17.9626L40.8627 17.9624C40.2658 17.9382 39.9562 18.3142 39.7318 18.5867L39.7218 18.599L39.7213 18.5996C39.2733 19.1471 38.7062 19.5851 38.0632 19.8802C37.4203 20.1753 36.7184 20.3197 36.0112 20.3025C35.304 20.2852 34.61 20.1067 33.9823 19.7805C33.3546 19.4545 32.8097 18.9895 32.389 18.4209C32.2784 18.2708 32.1332 18.1497 31.9657 18.0678C31.7985 17.986 31.6139 17.9458 31.4279 17.9506C29.3679 17.9983 27.4091 18.8527 25.9728 20.3301C25.903 20.4015 25.8357 20.474 25.7702 20.5469C24.8422 20.0195 23.8051 19.7104 22.7378 19.6444C22.1257 19.6 21.8 19.998 21.6023 20.2396C21.5985 20.2443 21.5947 20.2489 21.5909 20.2535L21.5908 20.2536C21.2126 20.7158 20.7338 21.0855 20.1911 21.3346C19.6483 21.5837 19.0558 21.7056 18.4587 21.691C17.8617 21.6764 17.2759 21.5257 16.7459 21.2504C16.2159 20.9751 15.7558 20.5825 15.4006 20.1024L15.4005 20.1023C15.2897 19.9527 15.1446 19.832 14.9773 19.7502C14.8101 19.6684 14.6257 19.628 14.4396 19.6324L14.4391 19.6324C12.5975 19.6793 10.847 20.4437 9.56094 21.7628C8.27487 23.0818 7.55495 24.8511 7.55469 26.6933V26.6933V32.5964C7.55469 32.9039 7.67685 33.1988 7.89429 33.4163C8.11173 33.6337 8.40665 33.7559 8.71416 33.7559ZM30.9408 20.3108C31.577 21.0194 32.352 21.5904 33.2183 21.988C34.1251 22.4043 35.1107 22.6209 36.1084 22.6233C37.1062 22.6257 38.0928 22.4137 39.0016 22.0018C39.8684 21.6088 40.6452 21.0426 41.2841 20.3385C42.5698 20.5475 43.7437 21.1991 44.6016 22.1828C45.4885 23.1999 45.9776 24.5033 45.9789 25.8528V34.434H26.0422V25.8532C26.0511 24.4714 26.5682 23.1412 27.495 22.1162C28.3933 21.1228 29.6155 20.4835 30.9408 20.3108Z" fill="#" stroke="#68bfb7" stroke-width="0.5"/>
<path d="M59.9479 13.5775V10.9541C59.9479 9.25518 59.273 7.62582 58.0717 6.42448C56.8703 5.22314 55.241 4.54823 53.542 4.54823C51.8431 4.54823 50.2137 5.22314 49.0124 6.42448C47.811 7.62582 47.1361 9.25518 47.1361 10.9541V13.5775C47.1361 15.2765 47.811 16.9058 49.0124 18.1072C50.2137 19.3085 51.8431 19.9834 53.542 19.9834C55.241 19.9834 56.8703 19.3085 58.0717 18.1072C59.273 16.9058 59.9479 15.2765 59.9479 13.5775ZM49.455 13.5775V10.9541C49.455 9.8702 49.8856 8.83067 50.6521 8.06422C51.4185 7.29776 52.4581 6.86717 53.542 6.86717C54.6259 6.86717 55.6655 7.29776 56.4319 8.06422C57.1984 8.83067 57.629 9.87021 57.629 10.9541V13.5775C57.629 14.6614 57.1984 15.701 56.4319 16.4674C55.6655 17.2339 54.6259 17.6645 53.542 17.6645C52.4581 17.6645 51.4185 17.2339 50.6521 16.4674C49.8856 15.701 49.455 14.6614 49.455 13.5775Z" fill="#" stroke="#68bfb7" stroke-width="0.5"/>
<path d="M24.86 13.5775V10.9541C24.86 10.1129 24.6943 9.2799 24.3724 8.5027C24.0505 7.7255 23.5786 7.01932 22.9838 6.42448C22.3889 5.82964 21.6827 5.35778 20.9056 5.03585C20.1284 4.71393 19.2954 4.54823 18.4541 4.54823C17.6129 4.54823 16.7799 4.71393 16.0027 5.03585C15.2255 5.35778 14.5193 5.82964 13.9245 6.42448C13.3296 7.01932 12.8578 7.7255 12.5358 8.5027C12.2139 9.2799 12.0482 10.1129 12.0482 10.9541V13.5775C12.0482 14.4187 12.2139 15.2517 12.5358 16.0289C12.8578 16.8061 13.3296 17.5123 13.9245 18.1072C14.5193 18.702 15.2255 19.1739 16.0027 19.4958C16.7799 19.8177 17.6129 19.9834 18.4541 19.9834C19.2954 19.9834 20.1283 19.8177 20.9056 19.4958C21.6827 19.1739 22.3889 18.702 22.9838 18.1072C23.5786 17.5123 24.0505 16.8061 24.3724 16.0289C24.6943 15.2517 24.86 14.4187 24.86 13.5775ZM14.3672 13.5775V10.9541C14.3672 9.8702 14.7977 8.83067 15.5642 8.06422C16.3307 7.29776 17.3702 6.86717 18.4541 6.86717C19.538 6.86717 20.5776 7.29776 21.344 8.06422C22.1105 8.83067 22.5411 9.8702 22.5411 10.9541V13.5775C22.5411 14.1142 22.4354 14.6457 22.23 15.1415C22.0246 15.6374 21.7235 16.0879 21.344 16.4674C20.9645 16.8469 20.514 17.148 20.0181 17.3534C19.5223 17.5587 18.9908 17.6645 18.4541 17.6645C17.9174 17.6645 17.386 17.5587 16.8901 17.3534C16.3943 17.148 15.9437 16.8469 15.5642 16.4674C15.1847 16.0879 14.8836 15.6374 14.6783 15.1415C14.4729 14.6457 14.3672 14.1142 14.3672 13.5775Z" fill="#" stroke="#68bfb7" stroke-width="0.5"/>
</svg>
