<svg width="68" height="72" viewBox="0 0 68 72" fill="none" xmlns="http://www.w3.org/2000/svg">
<path d="M35.1958 50.8408L35.1958 50.8408L36.5223 51.9344C38.7636 53.7819 40.0497 56.5023 40.0497 59.3969V68.6974H45.4937V37.9044C45.4937 37.1996 46.0651 36.6282 46.7699 36.6282C47.4747 36.6282 48.0461 37.1996 48.0461 37.9044V40.1736L59.8119 47.4144C60.6065 47.9027 61.0949 48.784 61.087 49.7165C61.087 49.7166 61.087 49.7167 61.087 49.7168L60.9609 68.6974H66.41C67.1148 68.6974 67.6861 69.2688 67.6861 69.9736C67.6861 70.6783 67.1148 71.2497 66.41 71.2497V70.9997C66.41 71.2497 66.4097 71.2497 66.4092 71.2497H66.407H66.3983H66.3633H66.2253H65.6868H63.6432L56.3488 71.2497L34.2142 71.2498L12.0797 71.2498L4.7853 71.2499L2.74163 71.25L2.26848 71.25V71.259L2.00964 71.2498C0.314447 71.1899 0.345609 68.7528 2.01022 68.6978L2.01848 68.6975V68.6977H7.46739L7.34127 49.729C7.34127 49.729 7.34127 49.7289 7.34127 49.7288L7.34127 49.7286L7.59127 49.7269C7.58401 48.8682 8.03881 48.061 8.77807 47.6221L35.1958 50.8408ZM35.1958 50.8408C34.5672 50.3229 33.6616 50.3314 33.0428 50.8612L33.0428 50.8613L31.7647 51.9561C29.6131 53.7992 28.3787 56.476 28.3787 59.2999V68.6974M35.1958 50.8408L28.3787 68.6974M28.3787 68.6974H22.9347V31.811C22.9347 31.7704 22.9546 31.7313 22.9872 31.7075L28.3787 68.6974ZM11.0094 46.0024L8.65043 47.4071L45.4411 31.7075C45.4737 31.7313 45.4936 31.7704 45.4936 31.811V33.7856C45.4936 34.4904 46.065 35.0618 46.7698 35.0618C47.4745 35.0618 48.0459 34.4904 48.0459 33.7856V31.811C48.0459 30.9561 47.6338 30.1463 46.9427 29.6435L46.7956 29.8456L46.9427 29.6435L42.4344 26.3636V19.0874C42.4344 18.2326 42.0219 17.4229 41.331 16.9211L35.4903 12.6707V6.81198H37.6511C38.3559 6.81198 38.9272 6.2406 38.9272 5.53581C38.9272 4.83102 38.3559 4.25964 37.6511 4.25964H35.4903V2.02617C35.4903 1.32138 34.9189 0.75 34.2141 0.75C33.5093 0.75 32.9379 1.32138 32.9379 2.02617V4.25964H30.7771C30.0723 4.25964 29.5009 4.83102 29.5009 5.53581C29.5009 6.2406 30.0723 6.81198 30.7771 6.81198H32.9379V12.6707L27.0978 16.9206C27.0978 16.9207 27.0978 16.9207 27.0977 16.9207C26.4061 17.4231 25.9938 18.2326 25.9938 19.0874V26.3636L21.4856 29.6435L21.6327 29.8456L21.4856 29.6435C20.7946 30.1463 20.3822 30.956 20.3822 31.811V40.4211L14.4967 43.9257L14.4967 43.9257C13.8912 44.2864 13.6924 45.0696 14.0532 45.6751C14.4164 46.2865 15.2069 46.476 15.8032 46.1182L20.3822 43.3916V68.6974H10.0199L9.8936 49.7095L9.8936 49.7091C9.89324 49.6652 9.91662 49.6235 9.9548 49.6008L9.95499 49.6006L12.3153 48.1952C12.9209 47.8346 13.1195 47.0514 12.7588 46.4458C12.3982 45.8402 11.6151 45.6417 11.0094 46.0024ZM34.2883 23.5933L45.441 31.7074L22.9874 31.7074L34.1399 23.5934C34.1399 23.5933 34.1399 23.5933 34.1399 23.5933C34.1848 23.5608 34.2436 23.5609 34.2882 23.5933L34.2883 23.5933ZM28.5986 18.9852L28.5989 18.985L34.2142 14.8987L39.8302 18.9855L39.8303 18.9856C39.8625 19.009 39.8822 19.0476 39.8822 19.0876V24.5067L35.7899 21.5294L35.7898 21.5293C34.8477 20.8441 33.5807 20.844 32.6385 21.5293L32.6384 21.5294L28.5462 24.5067V19.0874C28.5462 19.0476 28.5657 19.0091 28.5986 18.9852ZM58.4084 68.6974H48.0459V43.1705L58.4749 49.5886L58.475 49.5887C58.5118 49.6113 58.5351 49.6529 58.5347 49.697L58.5347 49.6974L58.4084 68.6974ZM30.9311 68.6974V59.2999C30.9311 57.2228 31.8398 55.2526 33.4253 53.8944L34.1423 53.2802L34.8988 53.9038C36.5508 55.2656 37.4974 57.2675 37.4974 59.3969V68.6974H30.9311Z" fill="#68BFB7" stroke="#68BFB7" stroke-width="0.5"/>
</svg>
